<svg height="814" width="720" xmlns="http://www.w3.org/2000/svg">
<rect height="814" fill="#555" width="720"></rect>
<text fill="#7f7" font-family="Courier New" font-size="12" xml:space="preserve">
<tspan x="10" y="26">28 megabytes installed</tspan>
<tspan x="10" y="42"></tspan>
<tspan x="10" y="58">node_modules</tspan>
<tspan x="10" y="74">├── clean-css@0.8.2 </tspan>
<tspan x="10" y="90">├── coffee-script@1.4.0 </tspan>
<tspan x="10" y="106">├─┬ connect@1.9.2 </tspan>
<tspan x="10" y="122">│ ├── formidable@1.0.17 </tspan>
<tspan x="10" y="138">│ ├── mime@1.2.7 </tspan>
<tspan x="10" y="154">│ └── qs@6.4.0 </tspan>
<tspan x="10" y="170">├── gzippo@0.1.7 </tspan>
<tspan x="10" y="186">├─┬ handlebars@1.0.7 </tspan>
<tspan x="10" y="202">│ ├─┬ optimist@0.3.5 </tspan>
<tspan x="10" y="218">│ │ └── wordwrap@0.0.3 </tspan>
<tspan x="10" y="234">│ └── uglify-js@1.2.6 </tspan>
<tspan x="10" y="250">├─┬ http-proxy@0.8.5 </tspan>
<tspan x="10" y="266">│ ├── colors@0.6.2 </tspan>
<tspan x="10" y="282">│ └── pkginfo@0.2.3 </tspan>
<tspan x="10" y="298">├── keypress@0.1.0 </tspan>
<tspan x="10" y="314">├── less@1.3.1 </tspan>
<tspan x="10" y="330">├─┬ mailcomposer@0.1.15 </tspan>
<tspan x="10" y="346">│ └── mimelib-noiconv@0.1.9 </tspan>
<tspan x="10" y="362">├─┬ mongodb@1.1.11 </tspan>
<tspan x="10" y="378">│ └── bson@0.1.5 </tspan>
<tspan x="10" y="394">├── nib@0.8.2 </tspan>
<tspan x="10" y="410">├── progress@0.0.5 </tspan>
<tspan x="10" y="426">├─┬ request@2.12.0 </tspan>
<tspan x="10" y="442">│ ├─┬ form-data@0.0.3 </tspan>
<tspan x="10" y="458">│ │ ├── async@0.1.9 </tspan>
<tspan x="10" y="474">│ │ └─┬ combined-stream@0.0.3 </tspan>
<tspan x="10" y="490">│ │   └── delayed-stream@0.0.5 </tspan>
<tspan x="10" y="506">│ └── mime@1.2.7 </tspan>
<tspan x="10" y="522">├── semver@1.1.0 </tspan>
<tspan x="10" y="538">├─┬ simplesmtp@0.1.25 </tspan>
<tspan x="10" y="554">│ ├── rai@0.1.12 </tspan>
<tspan x="10" y="570">│ └── xoauth2@1.2.0 </tspan>
<tspan x="10" y="586">├─┬ sockjs@0.3.4 </tspan>
<tspan x="10" y="602">│ ├── faye-websocket@0.4.0 </tspan>
<tspan x="10" y="618">│ └── node-uuid@1.3.3 </tspan>
<tspan x="10" y="634">├── stream-buffers@0.2.3 </tspan>
<tspan x="10" y="650">├─┬ stylus@0.30.1 </tspan>
<tspan x="10" y="666">│ ├── cssom@0.2.5 </tspan>
<tspan x="10" y="682">│ ├─┬ debug@2.6.4 </tspan>
<tspan x="10" y="698">│ │ └── ms@0.7.3 </tspan>
<tspan x="10" y="714">│ └── mkdirp@0.3.5 </tspan>
<tspan x="10" y="730">├── uglify-js@1.3.4 </tspan>
<tspan x="10" y="746">└─┬ useragent@1.1.0 </tspan>
<tspan x="10" y="762">  ├── request@2.9.202 </tspan>
<tspan x="10" y="778">  ├── semver@1.0.14 </tspan>
<tspan x="10" y="794">  └── yamlparser@0.0.2</tspan>
</text>
</svg>
